<svg width="138" height="32" viewBox="0 0 138 32" fill="none" xmlns="http://www.w3.org/2000/svg">
<path d="M0 0V20.0118L12.0471 32L17.9765 20.0118H24V0H0Z" fill="#009286"/>
<path d="M12.0469 32L23.9998 20.0118L12.0469 8.02362V32Z" fill="#F3C000"/>
<path d="M33.3214 15.9526V1.98206H37.286L40.9674 11.7048V1.98206H43.7049V15.9526H39.8347L36.0588 5.6635V15.9526H33.3214Z" fill="#939393"/>
<path d="M48.6136 11.4217C48.6136 12.5544 48.6136 14.3479 49.8407 14.3479C50.7847 14.3479 50.9735 13.404 50.9735 12.5544H53.7109C53.7109 13.5928 53.3334 14.5367 52.6726 15.1031C52.0118 15.6695 51.0679 16.0471 49.7463 16.0471C46.2537 16.0471 45.7817 13.876 45.7817 10.8553C45.7817 8.21226 46.1593 5.85236 49.7463 5.85236C53.4278 5.85236 53.8053 8.21223 53.7109 11.4217H48.6136ZM51.0679 9.91137C51.0679 8.96742 51.0679 7.64586 49.8407 7.64586C48.6136 7.64586 48.6136 9.15621 48.6136 9.91137H51.0679Z" fill="#939393"/>
<path d="M60.5074 14.9143C59.941 15.7639 59.1859 16.1414 58.1475 16.1414C56.826 16.1414 55.6933 15.3863 55.6933 13.9704V6.13556H58.4307V12.932C58.4307 13.7816 58.6195 14.4423 59.4691 14.4423C60.3186 14.4423 60.5074 13.7816 60.5074 12.932V6.13556H63.2449V13.9704C63.2449 14.6311 63.2449 15.2919 63.3393 15.9527H60.5074V14.9143Z" fill="#939393"/>
<path d="M70.2299 3.58678C69.0972 3.49238 68.9084 3.96435 68.9084 4.90831V6.13546H70.2299V7.83457H68.9084V15.9526H66.1709V7.83457H64.9438V6.13546H66.1709C66.1709 3.3036 65.8878 1.79327 69.286 1.79327C69.5692 1.79327 69.9468 1.79327 70.2299 1.79327V3.58678Z" fill="#939393"/>
<path d="M75.0439 1.88776V15.8582H72.3065V1.88776H75.0439Z" fill="#939393"/>
<path d="M80.5187 1.88776V4.05884H77.7812V1.88776H80.5187ZM80.5187 15.9527H77.7812V6.13554H80.5187V15.9527Z" fill="#939393"/>
<path d="M89.1086 8.02338L85.2384 14.1591H89.203V15.9526H82.501V13.9703L86.3712 7.83458H82.6898V6.04108H89.1086V8.02338Z" fill="#939393"/>
<path d="M93.2624 11.4217C93.2624 12.5544 93.2624 14.3479 94.4895 14.3479C95.4335 14.3479 95.6223 13.404 95.6223 12.5544H98.3597C98.3597 13.5928 97.9822 14.5367 97.3214 15.1031C96.6606 15.6695 95.7167 16.0471 94.3951 16.0471C90.9025 16.0471 90.4305 13.876 90.4305 10.8553C90.4305 8.21226 90.8081 5.85236 94.3951 5.85236C98.0766 5.85236 98.4541 8.21223 98.3597 11.4217H93.2624ZM95.8111 9.91137C95.8111 8.96742 95.8111 7.64586 94.5839 7.64586C93.3568 7.64586 93.3568 9.15621 93.3568 9.91137H95.8111Z" fill="#939393"/>
<path d="M104.307 8.87306C104.307 5.19165 104.307 1.60461 109.121 1.60461C113.935 1.60461 113.935 5.09725 113.935 8.87306C113.935 12.5545 113.935 16.1415 109.121 16.1415C104.307 16.1415 104.307 12.5545 104.307 8.87306ZM111.009 8.87306C111.009 5.28604 110.82 3.77572 109.121 3.77572C107.516 3.77572 107.233 5.28604 107.233 8.87306C107.233 12.4601 107.422 13.9704 109.121 13.9704C110.726 14.0648 111.009 12.4601 111.009 8.87306Z" fill="#939393"/>
<path d="M116.861 15.9526V1.98206H122.053C124.319 1.98206 126.112 2.64284 126.112 5.56909C126.112 7.17381 125.357 8.30655 123.752 8.68413C125.829 8.96731 126.395 10.2889 126.395 12.2712C126.395 15.8582 123.28 15.9526 122.053 15.9526H116.861ZM119.788 7.64577H121.77C122.431 7.64577 123.28 7.1738 123.28 5.85227C123.28 4.81392 122.619 4.05876 121.581 4.05876H119.788V7.64577ZM119.788 13.7815H121.392C122.053 13.7815 123.375 13.7815 123.375 11.7992C123.375 10.5721 122.903 9.81688 121.392 9.81688H119.693V13.7815H119.788Z" fill="#939393"/>
<path d="M128.756 8.873C128.756 5.19159 128.756 1.60455 133.57 1.60455C136.59 1.60455 137.723 3.20927 137.629 6.22992H134.797C134.797 4.34201 134.514 3.68126 133.57 3.68126C131.965 3.68126 131.682 5.19158 131.682 8.7786C131.682 12.3656 131.871 13.8759 133.57 13.8759C134.891 13.8759 134.891 12.0824 134.891 11.0441H137.818C137.818 14.8199 136.307 15.9526 133.57 15.9526C128.756 16.1414 128.756 12.5544 128.756 8.873Z" fill="#939393"/>
<path d="M33.9819 27.4689L35.1146 23.5987L36.2473 27.4689H33.9819ZM35.7754 22.7491H34.5482L32.1883 30.112H33.1323L33.6987 28.3185H36.5305L37.0969 30.112H38.1352L35.7754 22.7491Z" fill="#939393"/>
<path d="M40.5895 29.2624V26.6194H41.6279C42.5718 26.6194 43.327 26.8081 43.327 28.0353C43.327 28.6017 42.9494 29.2624 42.0054 29.2624H40.5895ZM40.5895 25.7698V23.5043H41.9111C42.6662 23.5043 43.0438 23.9763 43.0438 24.6371C43.0438 25.3922 42.6662 25.7698 41.9111 25.7698H40.5895ZM42.0998 22.7491H39.74V30.112H42.0998C42.9494 30.112 44.2709 29.9232 44.2709 28.0353C44.2709 26.9969 43.799 26.4306 42.7606 26.2418V26.1474C43.7046 25.9586 43.9877 25.2978 43.9877 24.4483C43.9877 24.2595 43.9877 23.8819 43.7046 23.5043C43.4214 23.0323 43.0438 22.7491 42.0998 22.7491Z" fill="#939393"/>
<path d="M51.256 22.7491H50.4064V28.9792L47.4802 22.7491H46.1587V30.0176H47.0082V23.6931H47.1026L49.9345 30.0176H51.256V22.7491Z" fill="#939393"/>
<path d="M57.2977 27.4689L58.4304 23.5987L59.5632 27.4689H57.2977ZM59.0912 22.7491H57.864L55.5042 30.112H56.4481L57.0145 28.3185H59.8463L60.4127 30.112H61.4511L59.0912 22.7491Z" fill="#939393"/>
<path d="M69.6633 22.7491H68.1529L66.265 28.8848L64.3771 22.7491H62.8668V30.0176H63.7164V23.5043H63.8108L65.7931 30.0176H66.6426L68.7193 23.5043V30.0176H69.6633V22.7491Z" fill="#939393"/>
<path d="M72.8723 25.8642V23.5043H74.2883C75.0434 23.5043 75.2322 24.0707 75.2322 24.6371C75.2322 25.2978 74.949 25.8642 74.1939 25.8642H72.8723ZM74.4771 22.7491H71.9284V30.112H72.8723V26.7138H74.0051C74.2883 26.7138 75.0434 26.7138 75.1378 27.6577C75.2322 28.6017 75.1378 29.5456 75.421 30.112H76.365C76.1762 29.64 76.0818 28.5073 76.0818 28.2241C75.9874 26.7138 75.7042 26.4306 74.8546 26.3362C75.7042 26.1474 76.1762 25.4866 76.1762 24.6371C76.2706 23.5987 75.7986 22.7491 74.4771 22.7491Z" fill="#939393"/>
<path d="M80.4245 29.4512C79.575 29.4512 79.103 29.0736 79.103 27.4689V25.0146C79.103 23.5043 80.1413 23.4099 80.4245 23.4099C80.7077 23.4099 81.746 23.5043 81.746 25.0146V27.4689C81.8404 28.9792 81.3685 29.4512 80.4245 29.4512ZM80.4245 22.5604C78.8198 22.5604 78.159 23.5043 78.159 24.9202V27.3745C78.159 29.4512 78.9142 30.2064 80.4245 30.2064C81.9348 30.2064 82.69 29.3568 82.69 27.3745V24.9202C82.7844 23.5043 82.0292 22.5604 80.4245 22.5604Z" fill="#939393"/>
</svg>
